<svg id="Layer_1" enable-background="new 0 0 511.994 511.994" height="512" viewBox="0 0 511.994 511.994" width="512" xmlns="http://www.w3.org/2000/svg"><g><g><g><path d="m438.114 338.932-165.561 16.556h-99.337l-132.449-16.556c-18.287 0-33.112 14.825-33.112 33.112v82.781c0 18.287 14.825 33.112 33.112 33.112l132.449-16.556h99.337l165.561 16.556z" fill="#e9efff"/><path d="m470.614 365.671c-2.931-15.034-16.035-26.43-31.854-26.733-18.563-.355-33.758 15.193-33.758 33.76v82.127c0 18.287 14.825 33.112 33.112 33.112h33.112c18.287 0 33.112-14.825 33.112-33.112v-66.224c0-9.144-7.412-16.556-16.556-16.556h-9.342c-3.79-.001-7.101-2.654-7.826-6.374z" fill="#bec8f7"/><path d="m173.216 355.488h99.337v115.893h-99.337z" fill="#ffc55e"/><path d="m249.553 355.488h23v115.893h-23z" fill="#ffa438"/></g><path d="m231.441 504.493h-17.112c-4.418 0-8-3.582-8-8v-107.892h33.112v107.893c0 4.418-3.582 7.999-8 7.999z" fill="#368df6"/><g><path d="m404.855 113.244v151.226c0 9.143-7.412 16.555-16.555 16.555h-264.876c-9.143 0-16.555-7.412-16.555-16.555v-151.226z" fill="#336fe7"/><path d="m470.134 250.627 7.611 45.55c.841 5.045-3.05 9.638-8.165 9.638h-30.122c-5.115 0-9.006-4.593-8.165-9.638l7.611-45.55z" fill="#ffa438"/><path d="m381.855 113.244v151.226c0 9.143-7.412 16.555-16.555 16.555h23c9.143 0 16.555-7.412 16.555-16.555v-151.226z" fill="#325be3"/><path d="m123.424 281.024h264.876c9.143 0 16.555-7.412 16.555-16.555v-24.874h-297.986v24.874c0 9.144 7.412 16.555 16.555 16.555z" fill="#ffc55e"/><path d="m381.855 264.47c0 9.143-7.412 16.555-16.555 16.555h23c9.143 0 16.555-7.412 16.555-16.555v-24.874h-23z" fill="#ffa438"/><path d="m244.726 167.036-198.804-71.002c-7.325-2.616-7.325-12.974 0-15.59l198.804-71.002c7.201-2.572 15.071-2.572 22.272 0l198.804 71.001c7.324 2.616 7.324 12.974 0 15.59l-198.804 71.001c-7.201 2.573-15.071 2.573-22.272.002z" fill="#368df6"/><path d="m465.802 80.444-198.804-71.002c-7.201-2.572-15.071-2.572-22.272 0l-.364.13 198.44 70.872c7.324 2.616 7.324 12.974 0 15.59l-198.44 70.872.364.13c7.201 2.572 15.071 2.572 22.272 0l198.804-71.002c7.324-2.616 7.324-12.974 0-15.59z" fill="#336fe7"/><circle cx="454.519" cy="231.319" fill="#ffc55e" r="24.832"/></g></g><g><path d="m43.517 103.085 55.975 19.991v141.396c0 13.265 10.792 24.056 24.056 24.056h193.787c4.142 0 7.5-3.358 7.5-7.5 0-4.143-3.358-7.5-7.5-7.5h-193.787c-4.993 0-9.056-4.063-9.056-9.056v-17.376h283.01v17.376c0 4.993-4.063 9.056-9.056 9.056h-41.112c-4.142 0-7.5 3.357-7.5 7.5 0 4.142 3.358 7.5 7.5 7.5h41.112c13.264 0 24.056-10.791 24.056-24.056v-141.396l34.668-12.382v89.176c-14.223 3.392-24.834 16.2-24.834 31.447 0 8.49 3.294 16.221 8.664 21.997l-6.956 41.634c-.764 4.584.521 9.246 3.524 12.792 3.004 3.546 7.392 5.58 12.039 5.58h30.125c4.647 0 9.035-2.034 12.039-5.58s4.289-8.208 3.524-12.795l-6.956-41.631c5.371-5.775 8.665-13.507 8.665-21.997 0-15.247-10.611-28.054-24.835-31.447v-94.533l6.307-2.252c6.361-2.272 10.472-8.104 10.472-14.859s-4.11-12.587-10.472-14.859l-198.819-71.008c-8.809-3.147-18.511-3.145-27.319 0l-198.821 71.007c-6.361 2.272-10.472 8.104-10.472 14.859s4.111 12.587 10.472 14.86zm426.81 194.96c-.233.275-.504.275-.594.275h-30.125c-.089 0-.36 0-.594-.275-.233-.275-.189-.542-.174-.627l5.903-35.332c3.13 1.012 6.465 1.565 9.927 1.565 3.463 0 6.797-.553 9.927-1.565l5.903 35.329c.015.088.059.354-.173.63zm1.678-66.728c0 9.558-7.776 17.334-17.335 17.334s-17.334-7.776-17.334-17.334 7.776-17.334 17.334-17.334 17.335 7.777 17.335 17.334zm-74.503.778h-283.01v-103.662l127.846 45.659-.001-.001c4.405 1.574 9.032 2.36 13.66 2.36 4.627 0 9.256-.787 13.659-2.359l127.846-45.659zm-348.94-144.602 198.821-71.007c2.777-.992 5.695-1.488 8.614-1.488 2.918 0 5.837.496 8.614 1.488l198.821 71.007c.218.077.517.184.517.732 0 .549-.299.655-.517.732l-198.821 71.008c-5.555 1.984-11.673 1.984-17.228 0h-.001l-198.82-71.007c-.218-.077-.517-.184-.517-.732 0-.549.299-.656.517-.733z"/><path d="m487.783 364.545h-9.75c-3.523-18.796-20.037-33.068-39.831-33.11-.035 0-.07-.002-.105-.001-2.586.001-5.113.255-7.566.72l-158.352 15.835h-98.493l-131.988-16.499c-.309-.038-.619-.058-.93-.058-22.393 0-40.612 18.219-40.612 40.612v82.78c0 22.394 18.219 40.612 40.612 40.612.311 0 .622-.02.93-.058l27.063-3.383c4.11-.514 7.026-4.263 6.512-8.373-.514-4.109-4.268-7.025-8.372-6.512l-26.57 3.321c-13.922-.233-25.175-11.632-25.175-25.608v-82.78c0-13.977 11.252-25.375 25.175-25.608l125.386 15.673v102.652l-69.125 8.641c-4.11.514-7.026 4.263-6.512 8.373.474 3.794 3.705 6.57 7.433 6.57.31 0 .624-.02.939-.059l75.234-9.404h25.143v17.612c0 8.547 6.953 15.5 15.5 15.5h17.112c8.547 0 15.5-6.953 15.5-15.5v-17.612h25.237l158.352 15.835c2.452.465 4.978.719 7.563.72.01 0 .02.001.03.001.007 0 .014-.001.021-.001h33.083c22.393 0 40.612-18.219 40.612-40.612v-66.224c0-13.264-10.792-24.055-24.056-24.055zm-83.667 112.455-124.063-12.406v-102.318l124.063-12.406c-4.176 6.381-6.614 13.997-6.614 22.175v82.78c0 8.178 2.438 15.794 6.614 22.175zm-139.063-114.012v18.112h-25.612-33.112-25.612v-18.112zm-33.112 51.225h-18.112v-18.113h18.112zm-51.225 49.669v-67.782h18.112v67.781h-18.112zm51.225 32.612c0 .275-.224.5-.5.5h-17.112c-.276 0-.5-.225-.5-.5v-67.281h18.112zm15-100.394h18.112v67.781h-18.112zm249.898 58.725c0 14.123-11.49 25.612-25.612 25.612h-32.737l-5.772-.577c-11.539-2.485-20.215-12.764-20.215-25.035v-82.78c0-12.271 8.676-22.55 20.215-25.035l5.696-.57c13.985.162 25.313 11.582 25.313 25.605v66.225c0 4.993-4.063 9.056-9.056 9.056-4.994 0-9.056-4.063-9.056-9.056v-66.225c0-4.142-3.358-7.5-7.5-7.5s-7.5 3.358-7.5 7.5v66.225c0 13.265 10.792 24.056 24.056 24.056 13.265 0 24.056-10.791 24.056-24.056v-58.725h9.056c4.994 0 9.056 4.063 9.056 9.056z"/></g></g></svg>